<svg xmlns="http://www.w3.org/2000/svg" xmlns:xlink="http://www.w3.org/1999/xlink" viewBox="0 0 500 500"><defs><clipPath id="freepik--clip-path--inject-3"><path d="M291.82,232.72s11.73,5.53,15.48,10.54,6.95,15.61,6.12,21c-1.35,8.79-14.48,29.88-13.84,32.79s-18,28-18,28,8,3.41,11.87,1.27,8.56,2.28,8.56,2.28l7.48-2.28s15.71,9.1,5.07,26.2l-10.13,3.62s-6.27,7.8-12.63,9.91-34.16,5.48-46.44,1S231.32,347,227.93,337.6s27.59-73.32,27.59-73.32Z" style="fill:#fff;stroke:#263238;stroke-linecap:round;stroke-linejoin:round"></path></clipPath><clipPath id="freepik--clip-path-2--inject-3"><path d="M298.1,270.23c-.13,1.39-.28,2.81-.46,4.25-.41,3.53-.95,7.16-1.59,10.75C293.63,299,289.71,312,285,316.35c-10,9.12-16.88,34.79-14.95,37.56s-10.48,22.55-10.48,22.55,3.06,5,.54,8.07H197.2V372.6H165V353.86l-7.76-1.19c6.94-32.31,8.49-73.65,11.11-90.54,3.57-22.95,12.66-35.61,26.43-51.83,12.76-15,35.18-15.4,52.58-8.23a36.34,36.34,0,0,1,3.77-2.31c3.76-2,9.74-4.5,15.07-3.43,8.57,1.71,26.2,31.89,27.76,38.11l1.26,11" style="fill:#fff;stroke:#263238;stroke-linecap:round;stroke-linejoin:round"></path></clipPath><clipPath id="freepik--clip-path-3--inject-3"><path d="M203.23,206.77a44.28,44.28,0,0,1,22.43-4.85c14.49.4,20.94,24.47,20.94,24.47s25,12.66,29.15,31.39-17.49,43-52,44.54-44.26-23.32-46.37-38c-1-6.9,0-21.29,5.79-34.51" style="fill:#fff;stroke:#263238;stroke-linecap:round;stroke-linejoin:round"></path></clipPath><clipPath id="freepik--clip-path-4--inject-3"><path d="M319.75,325.28s-3.7,4.17-8.44,4.39a16.06,16.06,0,0,0-3,10.48,8.67,8.67,0,0,0,5.69,8l10.19-3.17" style="fill:#fff;stroke:#263238;stroke-linecap:round;stroke-linejoin:round"></path></clipPath><clipPath id="freepik--clip-path-5--inject-3"><path d="M316.4,344.67c1.34,3,12.49,2.42,18.45-.91s8.66-7,8.81-9.25,3.37-5.05,3.1-6.42.46-3.51.3-5.11-7.8-8.92-9.17-9-3.72,1.85-3.72,1.85-4.62-4.78-7.13-2.56c-7.69,6.82-10.81,19.59-10.81,19.59-.37,2.14,0,2.57,0,2.57" style="fill:#fff;stroke:#263238;stroke-linecap:round;stroke-linejoin:round"></path></clipPath><clipPath id="freepik--clip-path-6--inject-3"><path d="M298.5,222a34.57,34.57,0,0,1-3.16,3.71c-1.1,1.15-2.29,2.26-3.5,3.32a97.19,97.19,0,0,1-13.23,9.59c-13.35-12.66-27.27-31.91-21.09-36.13S261.89,187,261.89,187a16.86,16.86,0,0,1,2.64.11c12.56,1.43,28.72,15.58,33.53,26.09C299.69,216.75,300,219.88,298.5,222Z" style="fill:#fff;stroke:#263238;stroke-linecap:round;stroke-linejoin:round"></path></clipPath><clipPath id="freepik--clip-path-7--inject-3"><path d="M265.4,199.42s-.33,4,.12,5.53c2.37,8.11,12.86,22,17.6,23.15s10.84,1,14.05-2c5.91-5.43,18-14.24,19.58-21.76s9.3-20.35,9.3-34.42c0-7.71-1.1-27.18-23.15-32.9-31.51-8.18-37.79,11.28-40.22,24.53-1.06,5.8-1.14,13.78-1.05,19.51" style="fill:#fff;stroke:#263238;stroke-linecap:round;stroke-linejoin:round"></path></clipPath></defs><g id="freepik--background-simple--inject-3"><path d="M248.34,67.68C54,78.56,12.22,336.4,77.32,415.25c50.53,61.2,140.61,51.1,188.17-8.81,39.15-49.32,102.54-12.88,154.79-66.22C488.34,270.73,466.47,55.48,248.34,67.68Z" style="fill:#1C0733"></path><path d="M248.34,67.68C54,78.56,12.22,336.4,77.32,415.25c50.53,61.2,140.61,51.1,188.17-8.81,39.15-49.32,102.54-12.88,154.79-66.22C488.34,270.73,466.47,55.48,248.34,67.68Z" style="fill:#fff;opacity:0.7000000000000001"></path></g><g id="freepik--Wall--inject-3"><polygon points="105.74 344.54 166.4 353.86 166.4 372.6 198.57 372.6 198.57 384.53 309.6 384.53 309.6 405.59 366.31 397.17 366.31 377.97 401.12 371.93 397.96 337.81 357.87 341.3 355.77 312.73 392.15 308.65 388.73 276.23 430.13 270.58 430.13 242.18 388.73 242.18 388.73 213 426.44 212.76 428.02 181.93 385.3 179.33 385.82 146.71 335.19 141.76 332.45 112.34 266.97 106.57 263.12 132.4 198.04 130.19 199.1 104.5 154.79 104.5 150.57 126.7 127.89 127.45 125.25 150.41 167.45 151 165.87 175.22 106.26 178.82 102.57 203.75 69.87 206.34 69.87 229.77 116.29 229.77 112.07 255.04 87.28 257.66 85.69 285.25 132.78 288.45 130.53 315.19 105.21 316.85 105.74 344.54" style="fill:#263238"></polygon><path d="M150.57,126.7s-40.51,1.18-63.84,3.48" style="fill:none;stroke:#263238;stroke-linecap:round;stroke-linejoin:round"></path><path d="M167.45,151s-65.95-2.86-90.54.92" style="fill:none;stroke:#263238;stroke-linecap:round;stroke-linejoin:round"></path><line x1="165.87" y1="175.22" x2="71.84" y2="179.33" style="fill:none;stroke:#263238;stroke-linecap:round;stroke-linejoin:round"></line><line x1="90.69" y1="150.62" x2="86.73" y2="170.49" style="fill:none;stroke:#263238;stroke-linecap:round;stroke-linejoin:round"></line><line x1="102.57" y1="203.76" x2="46.52" y2="208.57" style="fill:none;stroke:#263238;stroke-linecap:round;stroke-linejoin:round"></line><line x1="116.29" y1="229.77" x2="46.52" y2="230.14" style="fill:none;stroke:#263238;stroke-linecap:round;stroke-linejoin:round"></line><polyline points="58.65 230.14 58.65 256.61 76.91 257.15" style="fill:none;stroke:#263238;stroke-linecap:round;stroke-linejoin:round"></polyline><polyline points="106.72 104.5 199.1 104.5 240.5 105.51" style="fill:none;stroke:#263238;stroke-linecap:round;stroke-linejoin:round"></polyline><polyline points="131.68 104.5 134.13 82.91 179.09 82.91 177.01 101.79" style="fill:none;stroke:#263238;stroke-linecap:round;stroke-linejoin:round"></polyline><path d="M232,98.74l.52-18.47s36.75.65,66.2,5.34l1,18.88" style="fill:none;stroke:#263238;stroke-linecap:round;stroke-linejoin:round"></path><line x1="266.97" y1="106.57" x2="374.41" y2="117.18" style="fill:none;stroke:#263238;stroke-linecap:round;stroke-linejoin:round"></line><polyline points="335.19 141.76 408.36 148.82 406.78 123.3" style="fill:none;stroke:#263238;stroke-linecap:round;stroke-linejoin:round"></polyline><line x1="368.41" y1="112.61" x2="366.41" y2="96.16" style="fill:none;stroke:#263238;stroke-linecap:round;stroke-linejoin:round"></line><line x1="379.93" y1="179.33" x2="440.54" y2="182.91" style="fill:none;stroke:#263238;stroke-linecap:round;stroke-linejoin:round"></line><polyline points="408.36 148.82 437.37 153.77 437.37 168.83" style="fill:none;stroke:#263238;stroke-linecap:round;stroke-linejoin:round"></polyline><path d="M388.73,213c3.28,0,69.22.7,69.22.7" style="fill:none;stroke:#263238;stroke-linecap:round;stroke-linejoin:round"></path><line x1="388.73" y1="242.18" x2="457.95" y2="241.95" style="fill:none;stroke:#263238;stroke-linecap:round;stroke-linejoin:round"></line><line x1="355.77" y1="312.73" x2="445.81" y2="305.44" style="fill:none;stroke:#263238;stroke-linecap:round;stroke-linejoin:round"></line><polyline points="357.87 341.3 417.84 336.69 415.57 313.53" style="fill:none;stroke:#263238;stroke-linecap:round;stroke-linejoin:round"></polyline><polyline points="251.33 392.23 256.01 414.73 366.31 397.17 426.3 392.23" style="fill:none;stroke:#263238;stroke-linecap:round;stroke-linejoin:round"></polyline><polyline points="366.31 377.97 448.98 364.65 445.81 341.3" style="fill:none;stroke:#263238;stroke-linecap:round;stroke-linejoin:round"></polyline><polyline points="166.4 353.86 76.91 339.23 71.83 367.59 116.29 373.5" style="fill:none;stroke:#263238;stroke-linecap:round;stroke-linejoin:round"></polyline><polyline points="201.84 384.53 152.01 387.04 151.67 417.3 211.62 414.93" style="fill:none;stroke:#263238;stroke-linecap:round;stroke-linejoin:round"></polyline><line x1="144.88" y1="419.48" x2="106.73" y2="422.41" style="fill:none;stroke:#263238;stroke-linecap:round;stroke-linejoin:round"></line><polyline points="130.53 315.19 46.52 319.32 46.52 334.36" style="fill:none;stroke:#263238;stroke-linecap:round;stroke-linejoin:round"></polyline><line x1="132.78" y1="288.45" x2="37.55" y2="288.01" style="fill:none;stroke:#263238;stroke-linecap:round;stroke-linejoin:round"></line><line x1="198.57" y1="384.53" x2="198.57" y2="405.59" style="fill:none;stroke:#263238;stroke-linecap:round;stroke-linejoin:round"></line><line x1="182.55" y1="416.61" x2="182.55" y2="441.75" style="fill:none;stroke:#263238;stroke-linecap:round;stroke-linejoin:round"></line><line x1="295.07" y1="410.07" x2="298.73" y2="437.75" style="fill:none;stroke:#263238;stroke-linecap:round;stroke-linejoin:round"></line><polyline points="238.03 417.3 238.03 441.75 199.98 441.75" style="fill:none;stroke:#263238;stroke-linecap:round;stroke-linejoin:round"></polyline><line x1="426.3" y1="367.59" x2="430.13" y2="382.39" style="fill:none;stroke:#263238;stroke-linecap:round;stroke-linejoin:round"></line><polyline points="344.86 401.16 348.89 427.87 393.59 423.91" style="fill:none;stroke:#263238;stroke-linecap:round;stroke-linejoin:round"></polyline><line x1="402.08" y1="394.22" x2="403.36" y2="413.71" style="fill:none;stroke:#263238;stroke-linecap:round;stroke-linejoin:round"></line><line x1="264.8" y1="81.86" x2="264.25" y2="57.71" style="fill:none;stroke:#263238;stroke-linecap:round;stroke-linejoin:round"></line><line x1="311.04" y1="86.6" x2="351.26" y2="92.38" style="fill:none;stroke:#263238;stroke-linecap:round;stroke-linejoin:round"></line><line x1="333.97" y1="89.9" x2="333.97" y2="67.73" style="fill:none;stroke:#263238;stroke-linecap:round;stroke-linejoin:round"></line><polyline points="156.35 59.61 205.81 58.82 205.81 78.81 222.08 78.81" style="fill:none;stroke:#263238;stroke-linecap:round;stroke-linejoin:round"></polyline></g><g id="freepik--Character--inject-3"><path d="M291.82,232.72s11.73,5.53,15.48,10.54,6.95,15.61,6.12,21c-1.35,8.79-14.48,29.88-13.84,32.79s-18,28-18,28,8,3.41,11.87,1.27,8.56,2.28,8.56,2.28l7.48-2.28s15.71,9.1,5.07,26.2l-10.13,3.62s-6.27,7.8-12.63,9.91-34.16,5.48-46.44,1S231.32,347,227.93,337.6s27.59-73.32,27.59-73.32Z" style="fill:#fff"></path><g style="clip-path:url(#freepik--clip-path--inject-3)"><path d="M281.6,325.1a29.93,29.93,0,0,0,5.91,1.73C281,331,274.86,336.51,273,343.48c-3.17,11.7,8.69,19.52,16.42,23.26-9.19,2.05-32.92,4.4-44,.36-12.16-4.43-14-19.75-17.34-29.19l27.46-73.59,0,0,38,4.1s.61,7.73,8.56,6.72c3.46-.44,7.53-4.57,11-9.08-2.53,9.56-14.07,28.32-13.47,31.05C300.23,300,281.6,325.1,281.6,325.1Z" style="fill-opacity:0.7000000000000001;opacity:0.30000000000000004"></path><path d="M314.58,352.57l-10.13,3.62s-.89,1.1-2.33,2.59c-4.23-5.28-11.86-17.52-1.74-27.61,0,0-1.2,9.63,4.07,15.45s7.55,3.74,7.55,3.74-6.37-2.52-6.16-13.67c.05-2.9,1.28-7.58,3.59-10.3l.08,0S325.22,335.47,314.58,352.57Z" style="fill-opacity:0.7000000000000001;opacity:0.30000000000000004"></path></g><path d="M291.82,232.72s11.73,5.53,15.48,10.54,6.95,15.61,6.12,21c-1.35,8.79-14.48,29.88-13.84,32.79s-18,28-18,28,8,3.41,11.87,1.27,8.56,2.28,8.56,2.28l7.48-2.28s15.71,9.1,5.07,26.2l-10.13,3.62s-6.27,7.8-12.63,9.91-34.16,5.48-46.44,1S231.32,347,227.93,337.6s27.59-73.32,27.59-73.32Z" style="fill:none;stroke:#263238;stroke-linecap:round;stroke-linejoin:round"></path><path d="M302,328.65a15.62,15.62,0,0,0-3.3,9.61c-.08,6,3.3,11.55,3.3,11.55" style="fill:none;stroke:#263238;stroke-linecap:round;stroke-linejoin:round"></path><path d="M304.45,356.19s-5.76-5.06-7-11.65" style="fill:none;stroke:#263238;stroke-linecap:round;stroke-linejoin:round"></path><path d="M281.6,325.1s-11.88.35-14.43,6.07" style="fill:none;stroke:#263238;stroke-linecap:round;stroke-linejoin:round"></path><path d="M311,260.53s-8.44,14.38-22.68,15.7" style="fill:none;stroke:#263238;stroke-linecap:round;stroke-linejoin:round"></path><path d="M298.1,270.23c-.13,1.39-.28,2.81-.46,4.25-.41,3.53-.95,7.16-1.59,10.75C293.63,299,289.71,312,285,316.35c-10,9.12-16.88,34.79-14.95,37.56s-10.48,22.55-10.48,22.55,3.06,5,.54,8.07H197.2V372.6H165V353.86l-7.76-1.19c6.94-32.31,8.49-73.65,11.11-90.54,3.57-22.95,12.66-35.61,26.43-51.83,12.76-15,35.18-15.4,52.58-8.23a36.34,36.34,0,0,1,3.77-2.31c3.76-2,9.74-4.5,15.07-3.43,8.57,1.71,26.2,31.89,27.76,38.11l1.26,11" style="fill:#fff"></path><g style="clip-path:url(#freepik--clip-path-2--inject-3)"><path d="M259.52,376.46s3.06,5,.54,8.07H197.2V372.6H165V353.86l-7.76-1.19c2.31-10.74,4-22.48,5.37-34,13.5,17.17,42.32,50.67,64,53.91,29.29,4.38,35.8-11.84,35.8-11.84s-30.85,4.39-53.69-19.76,16.35.95,39.89,0a83.73,83.73,0,0,0,24.82-4.81c-3,8.42-4.47,16.26-3.45,17.72C271.93,356.68,259.52,376.46,259.52,376.46Z" style="fill-opacity:0.7000000000000001;opacity:0.30000000000000004"></path><path d="M286.19,253.68l5.7,5.15s8.34-14-6.1-36.15S253.2,201.9,253.2,201.9c-3.78,3.33-8.14,5.11-7.51,15.43-2.06-3.6-4.52-6.41-7.46-8-20.4-11.24-59.85,29.28-59.85,29.28s-14.24,44,2.38,62.31S256,288.45,256,288.45a281.09,281.09,0,0,0-1.56-38.25c.53,1.45,1.08,2.94,1.67,4.49l7.54-9.65s10.33,11.47,11.88,23.34c1.2,9.17-3.17,40.91,5.91,52a26.15,26.15,0,0,1,3.5-4c1.93-1.76,3.73-5,5.34-9.05a12.92,12.92,0,0,1-3.29-4.15c-6.35-12-5.4-40.48-5.4-40.48Z" style="fill-opacity:0.7000000000000001;opacity:0.30000000000000004"></path></g><path d="M298.1,270.23c-.13,1.39-.28,2.81-.46,4.25-.41,3.53-.95,7.16-1.59,10.75C293.63,299,289.71,312,285,316.35c-10,9.12-16.88,34.79-14.95,37.56s-10.48,22.55-10.48,22.55,3.06,5,.54,8.07H197.2V372.6H165V353.86l-7.76-1.19c6.94-32.31,8.49-73.65,11.11-90.54,3.57-22.95,12.66-35.61,26.43-51.83,12.76-15,35.18-15.4,52.58-8.23a36.34,36.34,0,0,1,3.77-2.31c3.76-2,9.74-4.5,15.07-3.43,8.57,1.71,26.2,31.89,27.76,38.11l1.26,11" style="fill:none;stroke:#263238;stroke-linecap:round;stroke-linejoin:round"></path><path d="M259.6,232.72s8.94,15.54,17,21l8.34,9.64s7.38,27.69,29.53,36.39S349.83,266.15,363,268l7.39-10.25-14.24-8.18a24.64,24.64,0,0,0-15,7.91c-6.85,7.39-16.35,33.86-24.53,32.49s-28.21-25.14-28.74-29.47v-9s5.23-9.67,4-15.95l-4-.52s-.79,9.54-2.9,12.15l-8.34,1.07a57.53,57.53,0,0,1-13-18.55l-5,4.51" style="fill:#1C0733;stroke:#263238;stroke-linecap:round;stroke-linejoin:round"></path><path d="M276.61,246.87l-10.39-12-8,9.13S246,214.55,246.79,207.54c.59-5.47,8.13-14.84,23.21-13.65s26.62,36,25.5,49.45a25.41,25.41,0,0,1-2,8.23l-5.82-14.22-7.45,5.79" style="fill:#fff;stroke:#263238;stroke-linecap:round;stroke-linejoin:round"></path><path d="M232.39,384.53a3.2,3.2,0,0,0,.19-2.8C231,379,233,358,235,352.45s35-65.31,39.43-89.78" style="fill:none;stroke:#263238;stroke-linecap:round;stroke-linejoin:round"></path><path d="M203.23,206.77a44.28,44.28,0,0,1,22.43-4.85c14.49.4,20.94,24.47,20.94,24.47s25,12.66,29.15,31.39-17.49,43-52,44.54-44.26-23.32-46.37-38c-1-6.9,0-21.29,5.79-34.51" style="fill:#fff"></path><g style="clip-path:url(#freepik--clip-path-3--inject-3)"><path d="M275.45,268.75c-4.13,16.07-23.7,32.29-51.74,33.57-33.75,1.54-43.8-22.18-46.21-37,.29-10.11,3.55-22,14.51-31.69-.22.73-8.9,28.36-5.71,42.6A62.37,62.37,0,0,1,196.57,242c11.09-16.36,26.83-15.12,31.36-13.23s35.12,7.77,43.95,28.56A62.56,62.56,0,0,1,275.45,268.75Z" style="fill-opacity:0.7000000000000001;opacity:0.30000000000000004"></path><path d="M209.25,222.68s10.95-10.41,20-9.68,15.27,12.86,15.27,12.86l-9.41-1.06S230.09,220.48,209.25,222.68Z" style="fill-opacity:0.7000000000000001;opacity:0.30000000000000004"></path></g><path d="M203.23,206.77a44.28,44.28,0,0,1,22.43-4.85c14.49.4,20.94,24.47,20.94,24.47s25,12.66,29.15,31.39-17.49,43-52,44.54-44.26-23.32-46.37-38c-1-6.9,0-21.29,5.79-34.51" style="fill:none;stroke:#263238;stroke-linecap:round;stroke-linejoin:round"></path><path d="M246.6,226.39s-21-6.59-37.35,6.33" style="fill:none;stroke:#263238;stroke-linecap:round;stroke-linejoin:round"></path><path d="M190.52,288.45s-6.86-4.48-7.92-24.17,14.92-38.42,14.92-38.42" style="fill:none;stroke:#263238;stroke-linecap:round;stroke-linejoin:round"></path><path d="M213.73,221.37s18-3.52,24.3,3.52" style="fill:none;stroke:#263238;stroke-linecap:round;stroke-linejoin:round"></path><path d="M270.92,258.83s7.14,25.79-9.76,39.41-48.51,12.1-59.21,4.91-12.74-26.38-12.74-26.38c.73-21.58,6.68-38.44,28.58-48S267.84,244.69,270.92,258.83Z" style="fill:#fff"></path><path d="M271.16,252.14S275,287.39,260,299.43s-42.89,10.7-52.35,4.34-11.26-23.32-11.26-23.32c.64-19.08,5.93-31.64,25.29-40.09S268.44,239.64,271.16,252.14Z" style="fill-opacity:0.7000000000000001;opacity:0.30000000000000004"></path><path d="M270.92,258.83s7.14,25.79-9.76,39.41-48.51,12.1-59.21,4.91-12.74-26.38-12.74-26.38" style="fill:none;stroke:#263238;stroke-linecap:round;stroke-linejoin:round"></path><path d="M319.75,325.28s-3.7,4.17-8.44,4.39a16.06,16.06,0,0,0-3,10.48,8.67,8.67,0,0,0,5.69,8l10.19-3.17" style="fill:#fff"></path><g style="clip-path:url(#freepik--clip-path-4--inject-3)"><path d="M319.75,325.28s-3.7,4.17-8.44,4.39a16.06,16.06,0,0,0-3,10.48,8.67,8.67,0,0,0,5.69,8l10.19-3.17" style="fill:#1C0733;opacity:0.4"></path></g><path d="M319.75,325.28s-3.7,4.17-8.44,4.39a16.06,16.06,0,0,0-3,10.48,8.67,8.67,0,0,0,5.69,8l10.19-3.17" style="fill:none;stroke:#263238;stroke-linecap:round;stroke-linejoin:round"></path><path d="M316.4,344.67c1.34,3,12.49,2.42,18.45-.91s8.66-7,8.81-9.25,3.37-5.05,3.1-6.42.46-3.51.3-5.11-7.8-8.92-9.17-9-3.72,1.85-3.72,1.85-4.62-4.78-7.13-2.56c-7.69,6.82-10.81,19.59-10.81,19.59-.37,2.14,0,2.57,0,2.57" style="fill:#fff"></path><g style="clip-path:url(#freepik--clip-path-5--inject-3)"><path d="M324,331.56a19.78,19.78,0,0,0-3,4.45s2.09.59,2.4,1.57,1.65,3.8,3.47,3.23,5.73-1.61,5.73-1.61-3.39-2.65-3.49-4.45a4.13,4.13,0,0,1,1.37-3.05s.78-3.46,2.17-4.27a5.42,5.42,0,0,1,1.81-.83s3.15-3.34,3.14-5.24-.9-2-1-2c.16-.06,1.08-.44,1.15-2.43a3.62,3.62,0,0,0-.92-2.62,11.36,11.36,0,0,0-2.41,1.43,1.75,1.75,0,0,1,.11,2.26c-1.37,2.17-2.5,7.29-4.68,6.35s-2.38-3.39-2.41-3.68C327.3,321.12,325.53,330,324,331.56Z" style="fill:#1C0733;opacity:0.4"></path></g><path d="M316.4,344.67c1.34,3,12.49,2.42,18.45-.91s8.66-7,8.81-9.25,3.37-5.05,3.1-6.42.46-3.51.3-5.11-7.8-8.92-9.17-9-3.72,1.85-3.72,1.85-4.62-4.78-7.13-2.56c-7.69,6.82-10.81,19.59-10.81,19.59-.37,2.14,0,2.57,0,2.57" style="fill:none;stroke:#263238;stroke-linecap:round;stroke-linejoin:round"></path><path d="M334.17,315.87c1.62,1.56-.46,2.6-2.32,6.88s-5.43-1.07-4.22-3.59" style="fill:none;stroke:#263238;stroke-linecap:round;stroke-linejoin:round"></path><path d="M343.77,325.28s-5.06-5.27-6.19-5.82-4.46.68-4.46.68" style="fill:none;stroke:#263238;stroke-linecap:round;stroke-linejoin:round"></path><path d="M340.93,331.17s-5.72-4.54-6.49-4.57-6,.55-6,.55-.69-1.12.68-3.17" style="fill:none;stroke:#263238;stroke-linecap:round;stroke-linejoin:round"></path><path d="M338,335.34l-7.53-3.64c-.53-.25-3.47,0-4-.83s.92-3.6,1.95-3.72" style="fill:none;stroke:#263238;stroke-linecap:round;stroke-linejoin:round"></path><path d="M333.8,340.15,328.4,336s-2.26,0-2.68-.51" style="fill:none;stroke:#263238;stroke-linecap:round;stroke-linejoin:round"></path><path d="M327.06,331.28a9.84,9.84,0,0,0-2.74,2.74c-.59,1.26,1.63,3.58,3,4.1a2.32,2.32,0,0,0,2.45-.67" style="fill:none;stroke:#263238;stroke-linecap:round;stroke-linejoin:round"></path><path d="M225.66,302.82s-10,4-13.19,1.61-14-24.51-14-24.51-3.72-3.31-3.66-6.93,2.8-19.11,5.93-20.93,9.68-.74,12.44-1.62,5.82-7.38,8.62-7.84,10,.06,13.06-.37,8.25-4.89,10.4-4.87,8.17,2.57,11.82,2.31,7.94-2.38,10.33-2.32,9.77,6.28,11.12,7.6,5.28,25.2,5.28,25.2,7.31,5.55,9.29,8.29,4,12.08,5.41,15.95-2.84,10.55-4.92,11-14.09,2.55-22.85,6.44c-2.88,1.29-5.72-3.21-5.72-3.21s-11.21,2-13,1.85-5.2-3.21-5.2-3.21-2.09,2.71-8.54,3.37C232.43,311.25,230.81,311.16,225.66,302.82Z" style="fill:#fff"></path><path d="M298.5,294.39c-1.4-3.87-3.43-13.2-5.41-15.95s-9.29-8.29-9.29-8.29-3.94-23.89-5.28-25.2c-.63-.61-2.55-2.28-4.66-3.89,4,6.05,2.49,14.75,2.41,15.24l2.22-4.73s8,33.72,6.91,36.88-13.65,3.87-15.4,1.85-4.38-15-4.53-16.21a14.71,14.71,0,0,1,1.7-6.48c1-1.37-3.14-9.51-4.74-9.34s-3.14,9.92-2.16,11.88,1.59,7.93,2.16,10.7,3.79,17.47,1.23,20-13.87,3.1-15.06,1.5-5.53-25.7-4.95-28.3-.19-10.45-3.15-11.42-4,5.12-2.47,7.62a29,29,0,0,1,2.47,6.59c-.78,8.09,3.15,27.81,3.15,27.81s-10.47,1.67-12.84,0-6.73-23.05-6.73-23.05,3,.39,0-3.56-7.32-12.66-8.31-7.79S219.13,281,219.13,281c.58,5.14,1.58,14.12,1.58,14.12s-3.16,2.3-6.13,2.1-9.49-16.61-8.6-18.39,6.43,5.73,6.43,5.73-1-5.14-3.16-7.31-8.34-13.86-9.27-14.62c-.52-.42.11-3.16.77-5.5.59-2.07,2.13-5,4.29-5,3.83,0,9.91,1.45,11.32,1.54,2.18.13,4-8.64,5.36-9.82s12.84,2.17,14,2.17,8.11-7.12,10.85-7.45,8.73,2.11,13.6,3.6c3.84,1.17,7.73-2.52,9.19-4.12a5.1,5.1,0,0,0-2-.71c-2.39-.06-6.67,2.06-10.33,2.32s-9.68-2.3-11.82-2.31-7.35,4.44-10.4,4.87-10.25-.09-13.06.37-5.87,7-8.62,7.84-9.32-.2-12.44,1.62-5.87,17.32-5.93,20.93,3.66,6.93,3.66,6.93,10.88,22.1,14,24.51,13.19-1.61,13.19-1.61c5.15,8.34,6.77,8.43,12.6,7.84,6.45-.66,8.54-3.37,8.54-3.37s3.39,3.06,5.2,3.21,13-1.85,13-1.85,2.84,4.5,5.72,3.21c8.76-3.89,20.76-6,22.85-6.44S299.9,298.26,298.5,294.39Z" style="fill:#1C0733;opacity:0.4"></path><path d="M225.66,302.82s-10,4-13.19,1.61-14-24.51-14-24.51-3.72-3.31-3.66-6.93,2.8-19.11,5.93-20.93,9.68-.74,12.44-1.62,5.82-7.38,8.62-7.84,10,.06,13.06-.37,8.25-4.89,10.4-4.87,8.17,2.57,11.82,2.31,7.94-2.38,10.33-2.32,9.77,6.28,11.12,7.6,5.28,25.2,5.28,25.2,7.31,5.55,9.29,8.29,4,12.08,5.41,15.95-2.84,10.55-4.92,11-14.09,2.55-22.85,6.44c-2.88,1.29-5.72-3.21-5.72-3.21s-11.21,2-13,1.85-5.2-3.21-5.2-3.21-2.09,2.71-8.54,3.37C232.43,311.25,230.81,311.16,225.66,302.82Z" style="fill:none;stroke:#263238;stroke-linecap:round;stroke-linejoin:round"></path><path d="M198.46,279.92s-2.28-5.79-1.83-9.63" style="fill:none;stroke:#263238;stroke-linecap:round;stroke-linejoin:round"></path><path d="M229.53,247.25c1.8,1.68-.3,12.86-.3,12.86" style="fill:none;stroke:#263238;stroke-linecap:round;stroke-linejoin:round"></path><path d="M250,242c2.09,2.62,1.21,8.89.75,12.74" style="fill:none;stroke:#263238;stroke-linecap:round;stroke-linejoin:round"></path><path d="M262.69,265.18s-.61,7.74.05,9.26,2,14.59,2.56,18.1,1.41,9.13,1.75,10.52.11,5.22-2,5.59" style="fill:none;stroke:#263238;stroke-linecap:round;stroke-linejoin:round"></path><path d="M266.22,298.32s1.79,3.8,3.06,4a72.12,72.12,0,0,0,10.65-1.23c1.66-.4,6.79-8.67,7.05-11s-3.18-19.89-3.18-19.89" style="fill:none;stroke:#263238;stroke-linecap:round;stroke-linejoin:round"></path><path d="M246.8,307.29c-1.45-1.74-3.52-10.43-4.49-18.89s-1.19-13.41-1.81-15.68" style="fill:none;stroke:#263238;stroke-linecap:round;stroke-linejoin:round"></path><path d="M225.66,302.82s-2.62-9.53-3.08-12-1.26-10.93-1.26-10.93a17.69,17.69,0,0,1-3.53-5.82" style="fill:none;stroke:#263238;stroke-linecap:round;stroke-linejoin:round"></path><path d="M273.61,242.18c1,2.3,1.08,9.39,1.08,9.39" style="fill:none;stroke:#263238;stroke-linecap:round;stroke-linejoin:round"></path><path d="M287,290c-.91,2.51-14.21,5.39-17,3" style="fill:none;stroke:#263238;stroke-linecap:round;stroke-linejoin:round"></path><path d="M263.66,303.15C262.27,305,249,306.86,247.38,306" style="fill:none;stroke:#263238;stroke-linecap:round;stroke-linejoin:round"></path><path d="M200,260.53c.35,3,3.72,7.5,3.72,7.5" style="fill:none;stroke:#263238;stroke-linecap:round;stroke-linejoin:round"></path><path d="M290.44,292.19c2.56-1.05,6.06,6.05,6.06,6.05" style="fill:none;stroke:#263238;stroke-linecap:round;stroke-linejoin:round"></path><path d="M298.5,222a34.57,34.57,0,0,1-3.16,3.71c-1.1,1.15-2.29,2.26-3.5,3.32a97.19,97.19,0,0,1-13.23,9.59c-13.35-12.66-27.27-31.91-21.09-36.13S261.89,187,261.89,187a16.86,16.86,0,0,1,2.64.11c12.56,1.43,28.72,15.58,33.53,26.09C299.69,216.75,300,219.88,298.5,222Z" style="fill:#fff"></path><g style="clip-path:url(#freepik--clip-path-6--inject-3)"><path d="M295.34,225.67c-1.1,1.15-2.29,2.26-3.5,3.32a97.19,97.19,0,0,1-13.23,9.59c-13.35-12.66-27.27-31.91-21.09-36.13S261.89,187,261.89,187a16.86,16.86,0,0,1,2.64.11c.58,6.42,1.07,15.7-.69,18-2.77,3.56-5.22,4.21-5.22,4.21s10,19.41,21.38,26.25C280,235.55,284.53,226.33,295.34,225.67Z" style="fill:#1C0733;opacity:0.4"></path><path d="M298.5,222a44.77,44.77,0,0,1-6.66,7,35.2,35.2,0,0,1-10.4,3.73c-9.89-8.56-12.86-26.05-12.86-26.05s20.33,1.8,29.48,6.54C299.69,216.75,300,219.88,298.5,222Z" style="fill:#263238"></path></g><path d="M298.5,222a34.57,34.57,0,0,1-3.16,3.71c-1.1,1.15-2.29,2.26-3.5,3.32a97.19,97.19,0,0,1-13.23,9.59c-13.35-12.66-27.27-31.91-21.09-36.13S261.89,187,261.89,187a16.86,16.86,0,0,1,2.64.11c12.56,1.43,28.72,15.58,33.53,26.09C299.69,216.75,300,219.88,298.5,222Z" style="fill:none;stroke:#263238;stroke-linecap:round;stroke-linejoin:round"></path><path d="M265.4,199.42s-.33,4,.12,5.53c2.37,8.11,12.86,22,17.6,23.15s10.84,1,14.05-2c5.91-5.43,18-14.24,19.58-21.76s9.3-20.35,9.3-34.42c0-7.71-1.1-27.18-23.15-32.9-31.51-8.18-37.79,11.28-40.22,24.53-1.06,5.8-1.14,13.78-1.05,19.51" style="fill:#fff"></path><g style="clip-path:url(#freepik--clip-path-7--inject-3)"><path d="M326.05,169.94c0,14.07-7.72,26.9-9.3,34.42s-13.67,16.33-19.58,21.76a11,11,0,0,1-6,2.48c6.54-4,4.84-7.36,4.84-7.36a7.87,7.87,0,0,1-4.72.53c-2.63-.53-2.34-3.76-2.34-3.76a6.87,6.87,0,0,1,4.9.07c2.56,1,5.62-3.17,5.66-3.56s-4.41-.94-4.41-.94l5.69-1.28-4.61-2.55s-.53.94-2.91,1.21-3.83-5.66-3.83-5.66l13.49-6.38s0-1.81-.26-5.14a25.52,25.52,0,0,1,.26-5.84l.67-2.15,1.88,1.21s9.42-3.87,9.4-6.64,2.39-5.27,4-9.87-.54-11.49-.54-11.49-3-4.88,2.82-3.16c1.44.42,2.83,2.21,4.11,4.66A50.12,50.12,0,0,1,326.05,169.94Z" style="fill:#1C0733;opacity:0.4"></path></g><path d="M265.4,199.42s-.33,4,.12,5.53c2.37,8.11,12.86,22,17.6,23.15s10.84,1,14.05-2c5.91-5.43,18-14.24,19.58-21.76s9.3-20.35,9.3-34.42c0-7.71-1.1-27.18-23.15-32.9-31.51-8.18-37.79,11.28-40.22,24.53-1.06,5.8-1.14,13.78-1.05,19.51" style="fill:none;stroke:#263238;stroke-linecap:round;stroke-linejoin:round"></path><path d="M274.42,178.45c1.78-.4,9.89,4.94,16.22,7.32s4-1.81,4-1.81" style="fill:none;stroke:#263238;stroke-linecap:round;stroke-linejoin:round"></path><path d="M303.89,184.78l-1,3.16s4.16.79,9.69-3.16,7.72-3.05,8.51-2.32" style="fill:none;stroke:#263238;stroke-linecap:round;stroke-linejoin:round"></path><path d="M285,187.19c-.15,1.16-.89,2-1.65,1.91s-1.25-1.12-1.09-2.27.89-2,1.65-1.91S285.13,186,285,187.19Z" style="fill:#263238"></path><path d="M310.67,190.29c-.15,1.15-.89,2-1.65,1.9s-1.25-1.12-1.09-2.27.89-2,1.65-1.91S310.83,189.13,310.67,190.29Z" style="fill:#263238"></path><path d="M282.2,212.34a29,29,0,0,1,9.1,1,9.09,9.09,0,0,0,4.71,0s3.46-.84,5.57.31" style="fill:#fff;stroke:#263238;stroke-linecap:round;stroke-linejoin:round"></path><path d="M287,216.56s1.32,1.45,2,1.45,4.86-.4,5.73,0,2.85-1.06,2.85-1.45" style="fill:#fff;stroke:#263238;stroke-linecap:round;stroke-linejoin:round"></path><path d="M266.38,182.46l1.84-.64s-.79-8.65,1.85-11,8.17-4.75,8.17-6.07,1.06-11.68,1.85-12.43c0,0,16.35,8.74,25.05,10.85s17.94-1.58,17.94-1.58.79,10.55,0,14.24.35,9.51.35,9.51,10.07-15.31,2.62-31.14c0,0,2.83-11.07-4.95-20.3s-32.18-5.81-32.18-5.81,4.51.53,6.15,1.85a24.63,24.63,0,0,0-23.42,4.48c-11.34,9.23-13.38,34.67-9.76,52.61,0,0,.53-9.62,1.85-10.94S266.38,182.46,266.38,182.46Z" style="fill:#263238"></path><path d="M264.66,178.43S263.08,172,262,170.8s-5.93,1.3-6.33,3.81.53,12.14,1.45,13.4,3.43,2.57,4.88,5.34,3.17,2.5,3.56,0a4.34,4.34,0,0,0-1.31-3.92" style="fill:#fff;stroke:#263238;stroke-linecap:round;stroke-linejoin:round"></path><path d="M307.5,160.43a22.54,22.54,0,0,1,3.66,2,12.51,12.51,0,0,1,3.13,2.83,6,6,0,0,1,1,2,4.52,4.52,0,0,1,.07,2.28A7,7,0,0,1,313,173a9,9,0,0,1-3.47,2.22,3.78,3.78,0,0,1-2.16,0,3.13,3.13,0,0,1-1.65-1.36,3.73,3.73,0,0,1,.17-3.95,3.36,3.36,0,0,1,3.38-1.73,3.22,3.22,0,0,0-3.16,1.86,3.32,3.32,0,0,0,0,3.55,2.47,2.47,0,0,0,1.4,1,3.15,3.15,0,0,0,1.74-.14,8.11,8.11,0,0,0,3-2.22,6,6,0,0,0,1.82-3.06,3.76,3.76,0,0,0-1-3.09,15.69,15.69,0,0,0-6.31-3.85Z" style="fill:#263238"></path><path d="M324.1,155.84s4.86-18.16-8.18-24.8c-7.51-3.82-22.1-2.9-22.1-2.9" style="fill:none;stroke:#fff;stroke-linecap:round;stroke-linejoin:round"></path><path d="M261.2,168.23s-1.46-18.2,6.19-29,21.63-11.74,31.52-7.38" style="fill:none;stroke:#fff;stroke-linecap:round;stroke-linejoin:round"></path><path d="M326.05,155.84a26.56,26.56,0,0,1,2.07,13.84,36.31,36.31,0,0,1-3.7,12.14" style="fill:none;stroke:#fff;stroke-linecap:round;stroke-linejoin:round"></path><path d="M312,160.58s9.59-9.1,4.32-22.28" style="fill:none;stroke:#fff;stroke-linecap:round;stroke-linejoin:round"></path><path d="M307.88,160.58s6.79-19.12-10.55-24.39" style="fill:none;stroke:#fff;stroke-linecap:round;stroke-linejoin:round"></path><path d="M302.9,159s-6.95-20.31-28.48-16.22" style="fill:none;stroke:#fff;stroke-linecap:round;stroke-linejoin:round"></path><path d="M302.9,190.1c-.79,1,0,4.47,0,8.82,0,1.64.92,9.65-2.17,10.25-4.74.93-6.27-3.29-8.77-3.43s-3-.26-3-1.84a3,3,0,0,1,3.43-2.64" style="fill:#fff;stroke:#263238;stroke-linecap:round;stroke-linejoin:round"></path></g><g id="freepik--Bricks--inject-3"><polygon points="128.54 372.23 198.46 369.31 203.98 391.03 195.03 401.04 131.68 404.76 125.63 381.43 128.54 372.23" style="fill:#fff"></polygon><polygon points="284.6 408.49 291.28 393.95 353.3 408.94 356.14 424.79 350.56 437.75 292.62 423.68 284.6 408.49" style="fill:#fff"></polygon><polygon points="133.02 206.34 187.35 178.43 201.84 181.93 201.84 210.25 152.01 233.28 136.19 233.28 133.02 206.34" style="fill:#fff"></polygon><polygon points="199.98 96.16 189.21 119.09 194.59 131.47 251.33 144.17 269.69 127.45 263.66 107.42 199.98 96.16" style="fill:#fff"></polygon><polygon points="347.08 195.33 338.44 216.12 339.08 226.99 396.76 240.74 406.78 220.49 406.78 210.25 347.08 195.33" style="fill:#fff"></polygon><polygon points="76.35 274.91 67.09 297.97 70.35 308.7 129.65 325.28 140.41 302.82 140.41 291.46 76.35 274.91" style="fill:#fff"></polygon><polygon points="379.93 272.03 376.2 283.46 380.73 307.67 448.38 307.86 454.95 299.47 450.74 272.35 379.93 272.03" style="fill:#fff"></polygon><polygon points="189.21 119.09 246.6 129.4 263.66 107.42 269.69 127.45 251.33 144.17 194.59 131.47 189.21 119.09" style="fill:#1C0733;opacity:0.4"></polygon><polygon points="201.84 181.93 150.69 208.83 152.01 233.28 136.19 233.28 133.02 206.34 187.35 178.43 201.84 181.93" style="fill:#1C0733;opacity:0.4"></polygon><polygon points="67.09 297.97 127.35 314.87 140.41 291.46 140.41 302.82 129.65 325.28 70.35 308.7 67.09 297.97" style="fill:#1C0733;opacity:0.4"></polygon><polygon points="128.54 372.23 136.45 395.97 203.98 391.03 195.03 401.04 131.68 404.76 125.63 381.43 128.54 372.23" style="fill:#1C0733;opacity:0.4"></polygon><polygon points="291.28 393.95 300.38 411 356.14 424.79 350.56 437.75 292.62 423.68 284.6 408.49 291.28 393.95" style="fill:#1C0733;opacity:0.4"></polygon><polygon points="379.93 272.03 388.06 298.24 454.95 299.47 448.38 307.86 380.73 307.67 376.2 283.46 379.93 272.03" style="fill:#1C0733;opacity:0.4"></polygon><polygon points="339.08 226.99 351.26 203.7 406.78 220.49 406.78 210.25 347.08 195.33 338.44 216.12 339.08 226.99" style="fill:#1C0733;opacity:0.4"></polygon><polygon points="133.02 206.34 150.69 208.83 152.01 233.28 136.19 233.28 133.02 206.34" style="fill:#1C0733;opacity:0.4"></polygon><polygon points="246.6 129.4 251.33 144.17 194.59 131.47 189.21 119.09 246.6 129.4" style="fill:#1C0733;opacity:0.4"></polygon><polygon points="347.08 195.33 351.26 203.7 339.08 226.99 338.44 216.12 347.08 195.33" style="fill:#1C0733;opacity:0.4"></polygon><polygon points="380.73 307.67 388.06 298.24 454.95 299.47 448.38 307.86 380.73 307.67" style="fill:#1C0733;opacity:0.4"></polygon><polygon points="300.38 411 292.62 423.68 284.6 408.49 291.28 393.95 300.38 411" style="fill:#1C0733;opacity:0.4"></polygon><polygon points="136.45 395.97 131.68 404.76 195.03 401.04 203.98 391.03 136.45 395.97" style="fill:#1C0733;opacity:0.4"></polygon><polygon points="67.09 297.97 127.35 314.87 129.65 325.28 70.35 308.7 67.09 297.97" style="fill:#1C0733;opacity:0.4"></polygon><polygon points="128.54 372.23 198.46 369.31 203.98 391.03 195.03 401.04 131.68 404.76 125.63 381.43 128.54 372.23" style="fill:none;stroke:#263238;stroke-linecap:round;stroke-linejoin:round"></polygon><polygon points="284.6 408.49 291.28 393.95 353.3 408.94 356.14 424.79 350.56 437.75 292.62 423.68 284.6 408.49" style="fill:none;stroke:#263238;stroke-linecap:round;stroke-linejoin:round"></polygon><polygon points="133.02 206.34 187.35 178.43 201.84 181.93 201.84 210.25 152.01 233.28 136.19 233.28 133.02 206.34" style="fill:none;stroke:#263238;stroke-linecap:round;stroke-linejoin:round"></polygon><polygon points="199.98 96.16 189.21 119.09 194.59 131.47 251.33 144.17 269.69 127.45 263.66 107.42 199.98 96.16" style="fill:none;stroke:#263238;stroke-linecap:round;stroke-linejoin:round"></polygon><polygon points="347.08 195.33 338.44 216.12 339.08 226.99 396.76 240.74 406.78 220.49 406.78 210.25 347.08 195.33" style="fill:none;stroke:#263238;stroke-linecap:round;stroke-linejoin:round"></polygon><polygon points="76.35 274.91 67.09 297.97 70.35 308.7 129.65 325.28 140.41 302.82 140.41 291.46 76.35 274.91" style="fill:none;stroke:#263238;stroke-linecap:round;stroke-linejoin:round"></polygon><polygon points="379.93 272.03 376.2 283.46 380.73 307.67 448.38 307.86 454.95 299.47 450.74 272.35 379.93 272.03" style="fill:none;stroke:#263238;stroke-linecap:round;stroke-linejoin:round"></polygon><polyline points="215.05 123.73 246.6 129.4 250 140.01" style="fill:none;stroke:#263238;stroke-linecap:round;stroke-linejoin:round"></polyline><line x1="263.66" y1="107.42" x2="255.6" y2="117.8" style="fill:none;stroke:#263238;stroke-linecap:round;stroke-linejoin:round"></line><line x1="253.2" y1="120.9" x2="251.33" y2="123.3" style="fill:none;stroke:#263238;stroke-linecap:round;stroke-linejoin:round"></line><line x1="189.21" y1="119.09" x2="195.18" y2="120.16" style="fill:none;stroke:#263238;stroke-linecap:round;stroke-linejoin:round"></line><polyline points="347.08 195.33 351.26 203.7 346.51 212.79" style="fill:none;stroke:#263238;stroke-linecap:round;stroke-linejoin:round"></polyline><line x1="355.93" y1="205.11" x2="368.41" y2="208.89" style="fill:none;stroke:#263238;stroke-linecap:round;stroke-linejoin:round"></line><line x1="372.61" y1="210.16" x2="376.2" y2="211.24" style="fill:none;stroke:#263238;stroke-linecap:round;stroke-linejoin:round"></line><line x1="341.34" y1="222.68" x2="339.08" y2="226.99" style="fill:none;stroke:#263238;stroke-linecap:round;stroke-linejoin:round"></line><polyline points="408.36 298.61 388.06 298.24 386.15 292.08" style="fill:none;stroke:#263238;stroke-linecap:round;stroke-linejoin:round"></polyline><line x1="415.58" y1="298.61" x2="417.84" y2="298.61" style="fill:none;stroke:#263238;stroke-linecap:round;stroke-linejoin:round"></line><line x1="379.93" y1="272.03" x2="383.54" y2="283.69" style="fill:none;stroke:#263238;stroke-linecap:round;stroke-linejoin:round"></line><line x1="380.73" y1="307.67" x2="384.88" y2="302.32" style="fill:none;stroke:#263238;stroke-linecap:round;stroke-linejoin:round"></line><polyline points="296.4 403.53 300.38 411 311.36 413.71" style="fill:none;stroke:#263238;stroke-linecap:round;stroke-linejoin:round"></polyline><line x1="316.26" y1="414.93" x2="321.66" y2="416.26" style="fill:none;stroke:#263238;stroke-linecap:round;stroke-linejoin:round"></line><line x1="356.14" y1="424.79" x2="347.08" y2="422.55" style="fill:none;stroke:#263238;stroke-linecap:round;stroke-linejoin:round"></line><line x1="298.1" y1="414.73" x2="295.19" y2="419.48" style="fill:none;stroke:#263238;stroke-linecap:round;stroke-linejoin:round"></line><polyline points="134.13 400.24 136.45 395.97 150.67 394.93" style="fill:none;stroke:#263238;stroke-linecap:round;stroke-linejoin:round"></polyline><line x1="159.39" y1="394.29" x2="164.03" y2="393.95" style="fill:none;stroke:#263238;stroke-linecap:round;stroke-linejoin:round"></line><line x1="128.54" y1="372.23" x2="131.68" y2="381.66" style="fill:none;stroke:#263238;stroke-linecap:round;stroke-linejoin:round"></line><line x1="136.45" y1="395.97" x2="134.13" y2="388.49" style="fill:none;stroke:#263238;stroke-linecap:round;stroke-linejoin:round"></line><polyline points="128.54 320.11 127.35 314.87 132.16 306.24" style="fill:none;stroke:#263238;stroke-linecap:round;stroke-linejoin:round"></polyline><line x1="140.41" y1="291.46" x2="136.77" y2="297.97" style="fill:none;stroke:#263238;stroke-linecap:round;stroke-linejoin:round"></line><line x1="67.09" y1="297.97" x2="86.73" y2="303.48" style="fill:none;stroke:#263238;stroke-linecap:round;stroke-linejoin:round"></line><line x1="93.74" y1="305.44" x2="119.71" y2="312.73" style="fill:none;stroke:#263238;stroke-linecap:round;stroke-linejoin:round"></line><polyline points="161.6 203.1 150.69 208.83 151.32 220.49" style="fill:none;stroke:#263238;stroke-linecap:round;stroke-linejoin:round"></polyline><line x1="152.01" y1="233.29" x2="151.67" y2="226.99" style="fill:none;stroke:#263238;stroke-linecap:round;stroke-linejoin:round"></line><line x1="173.29" y1="196.95" x2="184.89" y2="190.85" style="fill:none;stroke:#263238;stroke-linecap:round;stroke-linejoin:round"></line><line x1="133.02" y1="206.34" x2="144.88" y2="208.01" style="fill:none;stroke:#263238;stroke-linecap:round;stroke-linejoin:round"></line><line x1="150.69" y1="208.83" x2="148.83" y2="208.57" style="fill:none;stroke:#263238;stroke-linecap:round;stroke-linejoin:round"></line></g></svg>
